<svg width="512" height="512" viewBox="0 0 512 512" fill="none" xmlns="http://www.w3.org/2000/svg">
<path d="M512 391H482V121H512V31H0V121H30.001V391H0V481H512V391ZM482 91H431V61H482V91ZM111 91V61H161V91H111ZM191 61H241V91H191V61ZM271 61H321V91H271V61ZM351 61H401V91H351V61ZM30 61H81V91H30V61ZM60 121H452.001V391H60V121ZM161 421V451H111V421H161ZM191 421H241V451H191V421ZM271 421H321V451H271V421ZM351 421H401V451H351V421ZM30 421H81V451H30V421ZM482 451H431V421H482V451Z" fill="white"/>
<path d="M211 167.972V344.028L343.042 256L211 167.972ZM241 224.028L288.958 256L241 287.972V224.028Z" fill="white"/>
</svg>
